<svg xmlns="http://www.w3.org/2000/svg" width="1431.3" height="1040" viewBox="0 0 1431.3 1040"><defs><style>.b{opacity:.5}.c,.e{fill:#0084d4}.c{fill-opacity:.1}.d{fill:#ff8200}.f{fill:#0033a0}.g{fill:#00b5e2}</style></defs><path d="M0 0h1431.3v1040H0z" fill="#00205b"/><g class="b"><path class="c" d="M279.65 168.7a31.07 31.07 0 1 1-.06 0zm0 52.21a21.12 21.12 0 1 0-21.12-21.11 21.11 21.11 0 0 0 21.12 21.11z"/><path class="d" d="M199.8 210.39a10.67 10.67 0 1 1 10.67-10.67 10.65 10.65 0 0 1-10.63 10.67zm0 15.51a26.11 26.11 0 1 0-26.11-26.1 26.09 26.09 0 0 0 26.11 26.1z"/><circle class="e" cx="119.95" cy="199.8" r="16.51"/><path class="c" d="M199.8 88.85A31.1 31.1 0 1 1 168.7 120a31.07 31.07 0 0 1 31-31.1zm0 52.21A21.12 21.12 0 1 0 178.68 120a21.11 21.11 0 0 0 21.12 21.11z"/><path class="f" d="M120 130.54a10.67 10.67 0 1 1 10.67-10.67A10.69 10.69 0 0 1 120 130.54zm0 15.51A26.11 26.11 0 1 0 93.84 120 26.11 26.11 0 0 0 120 146.05z"/><circle class="g" cx="279.65" cy="119.95" r="16.51"/><path class="c" d="M40.1 168.7A31.1 31.1 0 1 1 9 199.8a31.09 31.09 0 0 1 31.1-31.1zm0 52.21A21.12 21.12 0 1 0 19 199.8a21.11 21.11 0 0 0 21.1 21.11z"/><circle class="g" cx="40.1" cy="119.95" r="16.51"/><path class="c" d="M519.2 168.7a31.06 31.06 0 1 1-.06 0zm0 52.21a21.12 21.12 0 1 0-21.11-21.11 21.12 21.12 0 0 0 21.11 21.11z"/><path class="g" d="M439.35 210.39A10.67 10.67 0 1 1 450 199.72a10.67 10.67 0 0 1-10.67 10.67zm0 15.51a26.11 26.11 0 1 0-26.1-26.1 26.1 26.1 0 0 0 26.1 26.1z"/><circle class="e" cx="359.5" cy="199.8" r="16.51"/><path class="f" d="M359.5 130.54a10.67 10.67 0 1 1 10.67-10.67 10.69 10.69 0 0 1-10.67 10.67zm0 15.51A26.11 26.11 0 1 0 333.39 120a26.1 26.1 0 0 0 26.11 26.05z"/><path class="c" d="M439.35 130.54A10.67 10.67 0 1 1 450 119.87a10.67 10.67 0 0 1-10.67 10.67zm0 15.51a26.11 26.11 0 1 0-26.1-26.1 26.11 26.11 0 0 0 26.1 26.1z"/><circle class="g" cx="519.2" cy="119.95" r="16.51"/><path class="c" d="M359.5 71.19a31.07 31.07 0 1 1 .06 0zm0-52.21a21.12 21.12 0 1 0 21.11 21.12A21.11 21.11 0 0 0 359.5 19z"/><path class="g" d="M439.35 29.42a10.65 10.65 0 1 1-.05 0zm0-15.43a26.11 26.11 0 1 0 26.11 26.11A26.1 26.1 0 0 0 439.35 14z"/><circle class="e" cx="279.65" cy="40.1" r="16.51"/><circle class="c" cx="119.95" cy="40.1" r="16.51"/><circle class="e" cx="519.2" cy="40.1" r="16.51"/><path class="c" d="M758.75 210.39a10.67 10.67 0 1 1 10.68-10.67 10.67 10.67 0 0 1-10.68 10.67zm0 15.51a26.11 26.11 0 1 0-26.1-26.1 26.1 26.1 0 0 0 26.1 26.1z"/><circle class="g" cx="678.9" cy="199.8" r="16.51"/><path class="g" d="M758.75 88.85A31.1 31.1 0 1 1 727.66 120a31.07 31.07 0 0 1 31-31.1zm0 52.21A21.12 21.12 0 1 0 737.64 120a21.11 21.11 0 0 0 21.11 21.11z"/><path class="c" d="M678.9 130.54a10.66 10.66 0 1 1 .05 0zm0 15.51A26.11 26.11 0 1 0 652.8 120a26.11 26.11 0 0 0 26.1 26.05z"/><path class="e" d="M599.05 168.7a31.06 31.06 0 1 1-.06 0zm0 52.21a21.12 21.12 0 1 0-21.11-21.11 21.12 21.12 0 0 0 21.11 21.11z"/><circle class="f" cx="599.05" cy="119.95" r="16.51"/><circle class="g" cx="678.9" cy="40.1" r="16.51"/><path class="e" d="M758.75 29.42a10.68 10.68 0 1 1-10.67 10.68 10.68 10.68 0 0 1 10.67-10.68zm0-15.43a26.11 26.11 0 1 0 26.11 26.11A26.11 26.11 0 0 0 758.75 14z"/><circle class="c" cx="599.05" cy="40.1" r="16.51"/><path class="g" d="M199.8 29.42a10.68 10.68 0 1 1-10.67 10.68 10.65 10.65 0 0 1 10.62-10.68zm0-15.43a26.11 26.11 0 1 0 26.1 26.11A26.11 26.11 0 0 0 199.8 14z"/><circle class="e" cx="40.1" cy="40.1" r="16.51"/><path class="c" d="M279.65 310.74a31 31 0 1 1 .14 0zm0-52.21a21.12 21.12 0 1 0 21.11 21.12 21.1 21.1 0 0 0-21.08-21.12z"/><path class="g" d="M359.5 268.9a10.75 10.75 0 1 1-10.67 10.82v-.07a10.74 10.74 0 0 1 10.67-10.75zm0-15.66a26 26 0 0 0-24.11 16.35 26.78 26.78 0 0 0 5.68 28.87 25.74 25.74 0 0 0 28.49 5.68 26.58 26.58 0 0 0-10.06-51z"/><circle class="f" cx="439.35" cy="279.65" r="16.51"/><path class="f" d="M359.5 390.6a31.07 31.07 0 1 1 .06 0zm0-52.21a21.11 21.11 0 1 0 21.11 21.11 21.11 21.11 0 0 0-21.11-21.11z"/><path class="e" d="M439.35 348.83a10.65 10.65 0 1 1-.05 0zm0-15.44a26.11 26.11 0 1 0 26.11 26.11 26.1 26.1 0 0 0-26.11-26.11z"/><circle class="g" cx="279.65" cy="359.5" r="16.51"/><path class="c" d="M519.12 310.74a31.1 31.1 0 1 1 .16 0zm0-52.21a21.12 21.12 0 1 0 21.12 21.12 21.1 21.1 0 0 0-21.08-21.12z"/><circle class="g" cx="519.2" cy="359.5" r="16.51"/><path class="c" d="M40.1 310.74a31.1 31.1 0 1 1 31.09-31.17 31.09 31.09 0 0 1-31.09 31.17zm0-52.21a21.16 21.16 0 1 0 21.19 21.2v-.08a21.23 21.23 0 0 0-21.19-21.12z"/><path class="g" d="M120 269.05a10.64 10.64 0 1 1-10.6 10.68v-.08a10.53 10.53 0 0 1 10.44-10.6zm0-15.51a26.11 26.11 0 1 0 26.1 26.11 26.11 26.11 0 0 0-26.1-26.11z"/><circle class="f" cx="199.8" cy="279.65" r="16.51"/><path class="f" d="M120 390.6a31.06 31.06 0 1 1 .06 0zm0-52.21a21.11 21.11 0 1 0 21.11 21.11A21.12 21.12 0 0 0 120 338.39z"/><path class="e" d="M199.8 348.83a10.67 10.67 0 1 1-10.67 10.67 10.69 10.69 0 0 1 10.67-10.67zm0-15.44a26.11 26.11 0 1 0 26.1 26.11 26.11 26.11 0 0 0-26.1-26.11z"/><circle class="g" cx="40.1" cy="359.5" r="16.51"/><path class="g" d="M199.8 408.25a31.07 31.07 0 1 1-.06 0zm0 52.21a21.11 21.11 0 1 0-21.12-21.11 21.11 21.11 0 0 0 21.12 21.11z"/><path class="c" d="M120 450a10.68 10.68 0 1 1 10.67-10.68A10.68 10.68 0 0 1 120 450zm0 15.51a26.11 26.11 0 1 0-26.11-26.11A26.11 26.11 0 0 0 120 465.46z"/><circle class="e" cx="279.65" cy="439.35" r="16.51"/><circle class="g" cx="439.35" cy="439.35" r="16.51"/><circle class="e" cx="40.1" cy="439.35" r="16.51"/><path class="c" d="M359.5 450a10.68 10.68 0 1 1 10.67-10.68A10.68 10.68 0 0 1 359.5 450zm0 15.51a26.11 26.11 0 1 0-26.11-26.11 26.11 26.11 0 0 0 26.11 26.06z"/><circle class="e" cx="519.2" cy="439.35" r="16.51"/><path class="g" d="M599.05 310.74a31 31 0 1 1 .14 0zm0-52.21a21.12 21.12 0 1 0 21.12 21.12 21.11 21.11 0 0 0-21.09-21.12z"/><path class="f" d="M679 268.83a10.75 10.75 0 1 1-10.67 10.83v-.08A10.74 10.74 0 0 1 679 268.83zm0-15.66a26.17 26.17 0 0 0-24.19 16.35 26.63 26.63 0 0 0 5.68 28.87 25.74 25.74 0 0 0 28.51 5.68 26.53 26.53 0 0 0-10.06-50.9z"/><circle class="c" cx="758.75" cy="279.65" r="16.51"/><path class="g" d="M758.75 348.83a10.67 10.67 0 1 1-10.67 10.67 10.68 10.68 0 0 1 10.67-10.67zm0-15.44a26.11 26.11 0 1 0 26.11 26.11 26.11 26.11 0 0 0-26.11-26.11z"/><path class="e" d="M678.9 348.83a10.67 10.67 0 1 1-10.67 10.67 10.68 10.68 0 0 1 10.67-10.67zm0-15.44a26.12 26.12 0 1 0 18.43 7.61 26.11 26.11 0 0 0-18.43-7.61z"/><circle class="f" cx="599.05" cy="359.5" r="16.51"/><path class="e" d="M758.75 408.25a31.06 31.06 0 1 1-.06 0zm0 52.21a21.11 21.11 0 1 0-21.11-21.11 21.11 21.11 0 0 0 21.11 21.11z"/><path class="g" d="M678.9 450a10.66 10.66 0 1 1 .05 0zm0 15.51a26.11 26.11 0 1 0-26.1-26.11 26.11 26.11 0 0 0 26.1 26.06z"/><circle class="c" cx="599.05" cy="439.35" r="16.51"/><path class="c" d="M279.65 488.11a31.07 31.07 0 1 1-.06 0zm0 52.21a21.12 21.12 0 1 0-21.12-21.12 21.12 21.12 0 0 0 21.09 21.12z"/><path class="f" d="M199.8 529.8a10.68 10.68 0 1 1 10.67-10.68 10.67 10.67 0 0 1-10.67 10.68zm0 15.51a26.11 26.11 0 1 0-26.11-26.11 26.1 26.1 0 0 0 26.11 26.11z"/><circle class="g" cx="119.95" cy="519.2" r="16.51"/><path class="c" d="M40.1 488.11A31.1 31.1 0 1 1 9 519.2a31.09 31.09 0 0 1 31.1-31.09zm0 52.21A21.12 21.12 0 1 0 19 519.2a21.11 21.11 0 0 0 21.09 21.12zm479.1-52.21a31.06 31.06 0 1 1-.06 0zm0 52.21a21.12 21.12 0 1 0-21.11-21.12 21.1 21.1 0 0 0 21.08 21.12z"/><path class="f" d="M439.35 529.8A10.68 10.68 0 1 1 450 519.12a10.68 10.68 0 0 1-10.67 10.68zm0 15.51a26.11 26.11 0 1 0-26.1-26.11 26.11 26.11 0 0 0 26.1 26.11z"/><circle class="g" cx="359.5" cy="519.2" r="16.51"/><path class="c" d="M758.75 530a10.75 10.75 0 1 1 10.68-10.83v.08A10.75 10.75 0 0 1 758.75 530zm0 15.66a26.41 26.41 0 1 0-26.1-26.71v.3a26.58 26.58 0 0 0 7.6 18.74 25.84 25.84 0 0 0 18.5 7.75z"/><path class="g" d="M599 530a10.75 10.75 0 1 1 10.67-10.83v.08A10.75 10.75 0 0 1 599 530zm0 15.66a26.1 26.1 0 0 0 24.18-16.27 26.62 26.62 0 0 0-5.68-28.87 25.75 25.75 0 0 0-28.5-5.73 26.63 26.63 0 0 0-8.37 43.15 25.8 25.8 0 0 0 18.37 7.75z"/><circle class="f" cx="678.9" cy="519.2" r="16.51"/><path class="c" d="M279.65 647.81a31.07 31.07 0 1 1-.06 0zm0 52.21a21.12 21.12 0 1 0-21.12-21.12 21.12 21.12 0 0 0 21.12 21.1z"/><path class="f" d="M199.8 689.5a10.68 10.68 0 1 1 10.67-10.67 10.67 10.67 0 0 1-10.67 10.67zm0 15.51a26.11 26.11 0 1 0-26.11-26.11A26.11 26.11 0 0 0 199.8 705z"/><circle class="g" cx="119.95" cy="678.9" r="16.51"/><path class="g" d="M199.8 568a31.07 31.07 0 1 1-.06 0zm0 52.21a21.12 21.12 0 1 0-21.12-21.12 21.12 21.12 0 0 0 21.12 21.12z"/><path class="c" d="M120 609.65A10.68 10.68 0 1 1 130.62 599 10.68 10.68 0 0 1 120 609.65zm0 15.51a26.11 26.11 0 1 0-26.11-26.11A26.11 26.11 0 0 0 120 625.16z"/><circle class="e" cx="279.65" cy="599.05" r="16.51"/><circle class="g" cx="439.35" cy="599.05" r="16.51"/><path class="c" d="M40.1 647.81A31.1 31.1 0 1 1 9 678.9a31.09 31.09 0 0 1 31.1-31.09zm0 52.21A21.12 21.12 0 1 0 19 678.9 21.12 21.12 0 0 0 40.1 700z"/><circle class="e" cx="40.1" cy="599.05" r="16.51"/><path class="c" d="M519.2 647.81a31.06 31.06 0 1 1-.06 0zm0 52.21a21.12 21.12 0 1 0-21.11-21.12A21.13 21.13 0 0 0 519.2 700z"/><path class="f" d="M439.35 689.5A10.68 10.68 0 1 1 450 678.83a10.67 10.67 0 0 1-10.67 10.67zm0 15.51a26.11 26.11 0 1 0-26.1-26.11 26.1 26.1 0 0 0 26.1 26.1z"/><circle class="g" cx="359.5" cy="678.9" r="16.51"/><path class="c" d="M359.5 609.65a10.65 10.65 0 1 1 .05 0zm0 15.51a26.11 26.11 0 1 0-26.11-26.11 26.11 26.11 0 0 0 26.11 26.11z"/><circle class="e" cx="519.2" cy="599.05" r="16.51"/><path class="g" d="M279.65 789.85a31.06 31.06 0 1 1 .06 0zm0-52.21a21.12 21.12 0 1 0 21.11 21.11 21.12 21.12 0 0 0-21.11-21.11z"/><path class="f" d="M359.5 748.08a10.68 10.68 0 1 1-10.67 10.67 10.67 10.67 0 0 1 10.67-10.67zm0-15.43a26.11 26.11 0 1 0 26.1 26.1 26.1 26.1 0 0 0-26.1-26.1z"/><circle class="c" cx="439.35" cy="758.75" r="16.51"/><circle class="c" cx="599.05" cy="758.75" r="16.51"/><path class="g" d="M519.2 789.85a31.07 31.07 0 1 1 .06 0zm0-52.21a21.12 21.12 0 1 0 21.12 21.11 21.11 21.11 0 0 0-21.12-21.11z"/><path class="e" d="M678.9 748.08a10.68 10.68 0 1 1-10.67 10.67 10.68 10.68 0 0 1 10.67-10.67zm0-15.43a26.11 26.11 0 1 0 26.1 26.1 26.11 26.11 0 0 0-26.1-26.1z"/><circle class="c" cx="758.75" cy="758.75" r="16.51"/><path class="c" d="M758.75 689.5a10.68 10.68 0 1 1 10.68-10.67 10.67 10.67 0 0 1-10.68 10.67zm0 15.51a26.11 26.11 0 1 0-26.1-26.11 26.11 26.11 0 0 0 26.1 26.1z"/><path class="g" d="M599 689.5a10.68 10.68 0 1 1 10.67-10.67A10.68 10.68 0 0 1 599 689.5zm0 15.5a26.22 26.22 0 1 0-18.35-7.68A26.21 26.21 0 0 0 599 705z"/><circle class="d" cx="678.9" cy="678.9" r="16.51"/><path class="e" d="M758.75 568a31.06 31.06 0 1 1-.06 0zm0 52.21a21.12 21.12 0 1 0-21.11-21.12 21.12 21.12 0 0 0 21.11 21.12z"/><path class="g" d="M678.9 609.65a10.66 10.66 0 1 1 .05 0zm0 15.51a26.11 26.11 0 1 0-26.1-26.11 26.11 26.11 0 0 0 26.1 26.11z"/><circle class="c" cx="599.05" cy="599.05" r="16.51"/><path class="g" d="M40.1 789.85a31.06 31.06 0 1 1 .06 0zm0-52.21a21.12 21.12 0 1 0 21.11 21.11 21.11 21.11 0 0 0-21.11-21.11z"/><path class="f" d="M120 748.08a10.68 10.68 0 1 1-10.68 10.67A10.67 10.67 0 0 1 120 748.08zm0-15.43a26.11 26.11 0 1 0 26.1 26.1 26.11 26.11 0 0 0-26.1-26.1z"/><circle class="e" cx="199.8" cy="758.75" r="16.51"/></g><g class="b"><path class="c" d="M1071.52 168.7a31.06 31.06 0 1 1-.06 0zm0 52.21a21.12 21.12 0 1 0-21.11-21.11 21.12 21.12 0 0 0 21.11 21.11z"/><path class="d" d="M991.67 210.39a10.67 10.67 0 1 1 10.68-10.67 10.65 10.65 0 0 1-10.63 10.67zm0 15.51a26.11 26.11 0 1 0-26.1-26.1 26.1 26.1 0 0 0 26.1 26.1z"/><circle class="e" cx="911.82" cy="199.8" r="16.51"/><path class="c" d="M991.67 88.85A31.1 31.1 0 1 1 960.58 120a31.06 31.06 0 0 1 31-31.1zm0 52.21A21.12 21.12 0 1 0 970.56 120a21.12 21.12 0 0 0 21.11 21.11z"/><path class="f" d="M911.82 130.54a10.67 10.67 0 1 1 10.67-10.67 10.69 10.69 0 0 1-10.67 10.67zm0 15.51a26.11 26.11 0 1 0-26.1-26.1 26.11 26.11 0 0 0 26.1 26.1z"/><circle class="g" cx="1071.52" cy="119.95" r="16.51"/><path class="c" d="M832 168.7a31.1 31.1 0 1 1-31.09 31.1A31.1 31.1 0 0 1 832 168.7zm0 52.21a21.12 21.12 0 1 0-21.11-21.11A21.12 21.12 0 0 0 832 220.91z"/><circle class="g" cx="831.97" cy="119.95" r="16.51"/><path class="c" d="M1311.08 168.7a31.07 31.07 0 1 1-.06 0zm0 52.21A21.12 21.12 0 1 0 1290 199.8a21.11 21.11 0 0 0 21.12 21.11z"/><path class="g" d="M1231.23 210.39a10.67 10.67 0 1 1 10.67-10.67 10.68 10.68 0 0 1-10.67 10.67zm0 15.51a26.11 26.11 0 1 0-26.11-26.1 26.1 26.1 0 0 0 26.11 26.1z"/><circle class="e" cx="1151.37" cy="199.8" r="16.51"/><path class="f" d="M1151.37 130.54a10.67 10.67 0 1 1 10.68-10.67 10.7 10.7 0 0 1-10.68 10.67zm0 15.51a26.11 26.11 0 1 0-26.1-26.1 26.11 26.11 0 0 0 26.1 26.1z"/><path class="c" d="M1231.23 130.54a10.67 10.67 0 1 1 10.67-10.67 10.68 10.68 0 0 1-10.67 10.67zm0 15.51a26.11 26.11 0 1 0-26.11-26.1 26.11 26.11 0 0 0 26.11 26.1z"/><circle class="g" cx="1311.08" cy="119.95" r="16.51"/><path class="c" d="M1151.37 71.19a31.07 31.07 0 1 1 .07 0zm0-52.21a21.12 21.12 0 1 0 21.12 21.12 21.11 21.11 0 0 0-21.12-21.1z"/><path class="g" d="M1231.23 29.42a10.68 10.68 0 1 1-10.68 10.68 10.68 10.68 0 0 1 10.68-10.68zm0-15.43a26.11 26.11 0 1 0 26.1 26.11 26.11 26.11 0 0 0-26.1-26.1z"/><circle class="e" cx="1071.52" cy="40.1" r="16.51"/><circle class="c" cx="911.82" cy="40.1" r="16.51"/><circle class="e" cx="1311.08" cy="40.1" r="16.51"/><path class="e" d="M1390.93 168.7a31.07 31.07 0 1 1-.06 0zm0 52.21a21.12 21.12 0 1 0-21.12-21.11 21.11 21.11 0 0 0 21.12 21.11z"/><circle class="f" cx="1390.93" cy="119.95" r="16.51"/><circle class="c" cx="1390.93" cy="40.1" r="16.51"/><path class="g" d="M991.67 29.42A10.68 10.68 0 1 1 981 40.1a10.66 10.66 0 0 1 10.63-10.68zm0-15.43a26.11 26.11 0 1 0 26.11 26.11A26.11 26.11 0 0 0 991.67 14z"/><circle class="e" cx="831.97" cy="40.1" r="16.51"/><path class="c" d="M1071.52 310.74a31 31 0 1 1 .14 0zm0-52.21a21.12 21.12 0 1 0 21.12 21.12 21.11 21.11 0 0 0-21.09-21.12z"/><path class="g" d="M1151.37 268.9a10.75 10.75 0 1 1-10.67 10.82v-.07a10.75 10.75 0 0 1 10.67-10.75zm0-15.66a26 26 0 0 0-24.1 16.35 26.76 26.76 0 0 0 5.68 28.87 25.72 25.72 0 0 0 28.48 5.68 26.58 26.58 0 0 0-10.06-51z"/><circle class="f" cx="1231.23" cy="279.65" r="16.51"/><path class="f" d="M1151.37 390.6a31.07 31.07 0 1 1 .07 0zm0-52.21a21.11 21.11 0 1 0 21.12 21.11 21.11 21.11 0 0 0-21.12-21.11z"/><path class="e" d="M1231.23 348.83a10.67 10.67 0 1 1-10.68 10.67 10.67 10.67 0 0 1 10.68-10.67zm0-15.44a26.11 26.11 0 1 0 26.1 26.11 26.11 26.11 0 0 0-26.1-26.11z"/><circle class="g" cx="1071.52" cy="359.5" r="16.51"/><path class="c" d="M1311 310.74a31.1 31.1 0 1 1 .15 0zm0-52.21a21.12 21.12 0 1 0 21.11 21.12 21.1 21.1 0 0 0-21.11-21.12z"/><circle class="g" cx="1311.08" cy="359.5" r="16.51"/><path class="c" d="M832 310.74a31.1 31.1 0 1 1 31.1-31.17 31.09 31.09 0 0 1-31.1 31.17zm0-52.21a21.16 21.16 0 1 0 21.19 21.2v-.08A21.22 21.22 0 0 0 832 258.53z"/><path class="g" d="M911.82 269.05a10.64 10.64 0 1 1-10.59 10.68v-.08a10.52 10.52 0 0 1 10.44-10.6zm0-15.51a26.11 26.11 0 1 0 26.11 26.11 26.1 26.1 0 0 0-26.11-26.11z"/><circle class="f" cx="991.67" cy="279.65" r="16.51"/><path class="f" d="M911.82 390.6a31.07 31.07 0 1 1 .06 0zm0-52.21a21.11 21.11 0 1 0 21.12 21.11 21.11 21.11 0 0 0-21.12-21.11z"/><path class="e" d="M991.67 348.83A10.67 10.67 0 1 1 981 359.5a10.69 10.69 0 0 1 10.67-10.67zm0-15.44a26.11 26.11 0 1 0 26.11 26.11 26.11 26.11 0 0 0-26.11-26.11z"/><circle class="g" cx="831.97" cy="359.5" r="16.51"/><path class="g" d="M991.67 408.25a31.06 31.06 0 1 1-.06 0zm0 52.21a21.11 21.11 0 1 0-21.11-21.11 21.12 21.12 0 0 0 21.11 21.11z"/><path class="c" d="M911.82 450a10.68 10.68 0 1 1 10.67-10.68A10.68 10.68 0 0 1 911.82 450zm0 15.51a26.11 26.11 0 1 0-26.1-26.11 26.1 26.1 0 0 0 26.1 26.06z"/><circle class="e" cx="1071.52" cy="439.35" r="16.51"/><circle class="g" cx="1231.23" cy="439.35" r="16.51"/><circle class="e" cx="831.97" cy="439.35" r="16.51"/><path class="c" d="M1151.37 450a10.68 10.68 0 1 1 10.68-10.68 10.68 10.68 0 0 1-10.68 10.68zm0 15.51a26.11 26.11 0 1 0-26.1-26.11 26.11 26.11 0 0 0 26.1 26.06z"/><circle class="e" cx="1311.08" cy="439.35" r="16.51"/><path class="g" d="M1390.93 310.74a31 31 0 1 1 .14 0zm0-52.21a21.12 21.12 0 1 0 21.07 21.12 21.1 21.1 0 0 0-21-21.12z"/><circle class="f" cx="1390.93" cy="359.5" r="16.51"/><circle class="c" cx="1390.93" cy="439.35" r="16.51"/><path class="c" d="M1071.52 488.11a31.06 31.06 0 1 1-.06 0zm0 52.21a21.12 21.12 0 1 0-21.11-21.12 21.1 21.1 0 0 0 21.08 21.12z"/><path class="f" d="M991.67 529.8a10.68 10.68 0 1 1 10.68-10.68 10.68 10.68 0 0 1-10.68 10.68zm0 15.51a26.11 26.11 0 1 0-26.1-26.11 26.11 26.11 0 0 0 26.1 26.11z"/><circle class="g" cx="911.82" cy="519.2" r="16.51"/><path class="c" d="M832 488.11a31.1 31.1 0 1 1-31.09 31.09A31.1 31.1 0 0 1 832 488.11zm0 52.21a21.12 21.12 0 1 0-21.11-21.12 21.1 21.1 0 0 0 21.08 21.12zm479.11-52.21a31.07 31.07 0 1 1-.06 0zm0 52.21A21.12 21.12 0 1 0 1290 519.2a21.11 21.11 0 0 0 21.09 21.12z"/><path class="f" d="M1231.23 529.8a10.68 10.68 0 1 1 10.67-10.68 10.68 10.68 0 0 1-10.67 10.68zm0 15.51a26.11 26.11 0 1 0-26.11-26.11 26.11 26.11 0 0 0 26.11 26.11z"/><circle class="g" cx="1151.37" cy="519.2" r="16.51"/><path class="g" d="M1390.84 530a10.75 10.75 0 1 1 10.68-10.83v.08a10.75 10.75 0 0 1-10.68 10.75zm0 15.66a26.1 26.1 0 0 0 24.16-16.32 26.62 26.62 0 0 0-5.68-28.87 25.76 25.76 0 0 0-28.49-5.68 26.65 26.65 0 0 0-8.37 43.15 25.81 25.81 0 0 0 18.43 7.75z"/><path class="c" d="M1071.52 647.81a31.06 31.06 0 1 1-.06 0zm0 52.21a21.12 21.12 0 1 0-21.11-21.12 21.13 21.13 0 0 0 21.11 21.1z"/><path class="f" d="M991.67 689.5a10.68 10.68 0 1 1 10.68-10.67 10.67 10.67 0 0 1-10.68 10.67zm0 15.51a26.11 26.11 0 1 0-26.1-26.11 26.11 26.11 0 0 0 26.1 26.1z"/><circle class="g" cx="911.82" cy="678.9" r="16.51"/><path class="g" d="M991.67 568a31.06 31.06 0 1 1-.06 0zm0 52.21a21.12 21.12 0 1 0-21.11-21.12 21.13 21.13 0 0 0 21.11 21.12z"/><path class="c" d="M911.82 609.65A10.68 10.68 0 1 1 922.49 599a10.67 10.67 0 0 1-10.67 10.67zm0 15.51a26.11 26.11 0 1 0-26.1-26.11 26.1 26.1 0 0 0 26.1 26.11z"/><circle class="e" cx="1071.52" cy="599.05" r="16.51"/><circle class="g" cx="1231.23" cy="599.05" r="16.51"/><path class="c" d="M832 647.81a31.1 31.1 0 1 1-31.09 31.09A31.1 31.1 0 0 1 832 647.81zm0 52.19a21.12 21.12 0 1 0-21.11-21.12A21.13 21.13 0 0 0 832 700z"/><circle class="e" cx="831.97" cy="599.05" r="16.51"/><path class="c" d="M1311.08 647.81a31.07 31.07 0 1 1-.06 0zm0 52.21A21.12 21.12 0 1 0 1290 678.9a21.12 21.12 0 0 0 21.08 21.1z"/><path class="f" d="M1231.23 689.5a10.68 10.68 0 1 1 10.67-10.67 10.68 10.68 0 0 1-10.67 10.67zm0 15.51a26.11 26.11 0 1 0-26.11-26.11 26.11 26.11 0 0 0 26.11 26.1z"/><circle class="g" cx="1151.37" cy="678.9" r="16.51"/><path class="c" d="M1151.37 609.65a10.66 10.66 0 1 1 .05 0zm0 15.51a26.11 26.11 0 1 0-26.1-26.11 26.11 26.11 0 0 0 26.1 26.11z"/><circle class="e" cx="1311.08" cy="599.05" r="16.51"/><path class="g" d="M1071.52 789.85a31.07 31.07 0 1 1 .07 0zm0-52.21a21.12 21.12 0 1 0 21.12 21.11 21.11 21.11 0 0 0-21.12-21.11z"/><path class="f" d="M1151.37 748.08a10.68 10.68 0 1 1-10.67 10.67 10.68 10.68 0 0 1 10.67-10.67zm0-15.43a26.11 26.11 0 1 0 26.11 26.1 26.11 26.11 0 0 0-26.11-26.1z"/><circle class="c" cx="1231.23" cy="758.75" r="16.51"/><circle class="c" cx="1390.93" cy="758.75" r="16.51"/><path class="g" d="M1311.08 789.85a31.06 31.06 0 1 1 .06 0zm0-52.21a21.12 21.12 0 1 0 21.11 21.11 21.12 21.12 0 0 0-21.11-21.11zM1390.85 689.5a10.65 10.65 0 1 1 .05 0zm0 15.51a26.22 26.22 0 1 0-18.35-7.68 26.21 26.21 0 0 0 18.35 7.67z"/><circle class="c" cx="1390.93" cy="599.05" r="16.51"/><path class="g" d="M832 789.85a31.07 31.07 0 1 1 .06 0zm0-52.21a21.12 21.12 0 1 0 21.12 21.11A21.11 21.11 0 0 0 832 737.64z"/><path class="f" d="M911.82 748.08a10.68 10.68 0 1 1-10.67 10.67 10.67 10.67 0 0 1 10.67-10.67zm0-15.43a26.11 26.11 0 1 0 26.11 26.1 26.11 26.11 0 0 0-26.11-26.1z"/><circle class="e" cx="991.67" cy="758.75" r="16.51"/></g><g class="b"><path class="c" d="M279.65 958.55a31.07 31.07 0 1 1-.06 0zm0 52.21a21.12 21.12 0 1 0-21.12-21.11 21.11 21.11 0 0 0 21.12 21.11z"/><path class="d" d="M199.8 1000.24a10.67 10.67 0 1 1 10.67-10.67 10.65 10.65 0 0 1-10.63 10.67zm0 15.51a26.11 26.11 0 1 0-26.11-26.1 26.09 26.09 0 0 0 26.11 26.1z"/><circle class="e" cx="119.95" cy="989.65" r="16.51"/><path class="c" d="M199.8 878.7a31.1 31.1 0 1 1-31.1 31.1 31.07 31.07 0 0 1 31-31.1zm0 52.21a21.12 21.12 0 1 0-21.12-21.11 21.11 21.11 0 0 0 21.12 21.11z"/><path class="f" d="M120 920.39a10.67 10.67 0 1 1 10.67-10.67A10.69 10.69 0 0 1 120 920.39zm0 15.51a26.11 26.11 0 1 0-26.11-26.1A26.11 26.11 0 0 0 120 935.9z"/><circle class="g" cx="279.65" cy="909.8" r="16.51"/><path class="c" d="M40.1 958.55A31.1 31.1 0 1 1 9 989.65a31.09 31.09 0 0 1 31.1-31.1zm0 52.21A21.12 21.12 0 1 0 19 989.65a21.11 21.11 0 0 0 21.12 21.11z"/><circle class="g" cx="40.1" cy="909.8" r="16.51"/><path class="c" d="M519.2 958.55a31.06 31.06 0 1 1-.06 0zm0 52.21a21.12 21.12 0 1 0-21.11-21.11 21.12 21.12 0 0 0 21.11 21.11z"/><path class="g" d="M439.35 1000.24A10.67 10.67 0 1 1 450 989.57a10.67 10.67 0 0 1-10.67 10.67zm0 15.51a26.11 26.11 0 1 0-26.1-26.1 26.1 26.1 0 0 0 26.1 26.1z"/><circle class="e" cx="359.5" cy="989.65" r="16.51"/><path class="f" d="M359.5 920.39a10.67 10.67 0 1 1 10.67-10.67 10.69 10.69 0 0 1-10.67 10.67zm0 15.51a26.11 26.11 0 1 0-26.11-26.1 26.1 26.1 0 0 0 26.11 26.1z"/><path class="c" d="M439.35 920.39A10.67 10.67 0 1 1 450 909.72a10.67 10.67 0 0 1-10.67 10.67zm0 15.51a26.11 26.11 0 1 0-26.1-26.1 26.11 26.11 0 0 0 26.1 26.1z"/><circle class="g" cx="519.2" cy="909.8" r="16.51"/><path class="c" d="M359.5 861a31.07 31.07 0 1 1 .06 0zm0-52.21A21.12 21.12 0 1 0 380.61 830a21.11 21.11 0 0 0-21.11-21.12z"/><path class="g" d="M439.35 819.27a10.65 10.65 0 1 1-.05 0zm0-15.43A26.11 26.11 0 1 0 465.46 830a26.1 26.1 0 0 0-26.11-26.16z"/><circle class="e" cx="279.65" cy="829.95" r="16.51"/><circle class="c" cx="119.95" cy="829.95" r="16.51"/><circle class="e" cx="519.2" cy="829.95" r="16.51"/><path class="c" d="M758.75 1000.24a10.67 10.67 0 1 1 10.68-10.67 10.67 10.67 0 0 1-10.68 10.67zm0 15.51a26.11 26.11 0 1 0-26.1-26.1 26.1 26.1 0 0 0 26.1 26.1z"/><circle class="g" cx="678.9" cy="989.65" r="16.51"/><path class="g" d="M758.75 878.7a31.1 31.1 0 1 1-31.09 31.1 31.07 31.07 0 0 1 31-31.1zm0 52.21a21.12 21.12 0 1 0-21.11-21.11 21.11 21.11 0 0 0 21.11 21.11z"/><path class="c" d="M678.9 920.39a10.66 10.66 0 1 1 .05 0zm0 15.51a26.11 26.11 0 1 0-26.1-26.1 26.11 26.11 0 0 0 26.1 26.1z"/><path class="e" d="M599.05 958.55a31.06 31.06 0 1 1-.06 0zm0 52.21a21.12 21.12 0 1 0-21.11-21.11 21.12 21.12 0 0 0 21.11 21.11z"/><circle class="f" cx="599.05" cy="909.8" r="16.51"/><circle class="g" cx="678.9" cy="829.95" r="16.51"/><path class="e" d="M758.75 819.27A10.68 10.68 0 1 1 748.08 830a10.68 10.68 0 0 1 10.67-10.68zm0-15.43A26.11 26.11 0 1 0 784.86 830a26.11 26.11 0 0 0-26.11-26.16z"/><circle class="c" cx="599.05" cy="829.95" r="16.51"/><path class="g" d="M199.8 819.27A10.68 10.68 0 1 1 189.13 830a10.65 10.65 0 0 1 10.62-10.68zm0-15.43A26.11 26.11 0 1 0 225.9 830a26.11 26.11 0 0 0-26.1-26.16z"/><circle class="e" cx="40.1" cy="829.95" r="16.51"/></g><g class="b"><path class="c" d="M1071.52 958.55a31.06 31.06 0 1 1-.06 0zm0 52.21a21.12 21.12 0 1 0-21.11-21.11 21.12 21.12 0 0 0 21.11 21.11z"/><path class="d" d="M991.67 1000.24a10.67 10.67 0 1 1 10.68-10.67 10.65 10.65 0 0 1-10.63 10.67zm0 15.51a26.11 26.11 0 1 0-26.1-26.1 26.1 26.1 0 0 0 26.1 26.1z"/><circle class="e" cx="911.82" cy="989.65" r="16.51"/><path class="c" d="M991.67 878.7a31.1 31.1 0 1 1-31.09 31.1 31.06 31.06 0 0 1 31-31.1zm0 52.21a21.12 21.12 0 1 0-21.11-21.11 21.12 21.12 0 0 0 21.11 21.11z"/><path class="f" d="M911.82 920.39a10.67 10.67 0 1 1 10.67-10.67 10.69 10.69 0 0 1-10.67 10.67zm0 15.51a26.11 26.11 0 1 0-26.1-26.1 26.11 26.11 0 0 0 26.1 26.1z"/><circle class="g" cx="1071.52" cy="909.8" r="16.51"/><path class="c" d="M832 958.55a31.1 31.1 0 1 1-31.09 31.1 31.1 31.1 0 0 1 31.09-31.1zm0 52.21a21.12 21.12 0 1 0-21.11-21.11 21.12 21.12 0 0 0 21.11 21.11z"/><circle class="g" cx="831.97" cy="909.8" r="16.51"/><path class="c" d="M1311.08 958.55a31.07 31.07 0 1 1-.06 0zm0 52.21a21.12 21.12 0 1 0-21.08-21.11 21.11 21.11 0 0 0 21.12 21.11z"/><path class="g" d="M1231.23 1000.24a10.67 10.67 0 1 1 10.67-10.67 10.68 10.68 0 0 1-10.67 10.67zm0 15.51a26.11 26.11 0 1 0-26.11-26.1 26.1 26.1 0 0 0 26.11 26.1z"/><circle class="e" cx="1151.37" cy="989.65" r="16.51"/><path class="f" d="M1151.37 920.39a10.67 10.67 0 1 1 10.68-10.67 10.7 10.7 0 0 1-10.68 10.67zm0 15.51a26.11 26.11 0 1 0-26.1-26.1 26.11 26.11 0 0 0 26.1 26.1z"/><path class="c" d="M1231.23 920.39a10.67 10.67 0 1 1 10.67-10.67 10.68 10.68 0 0 1-10.67 10.67zm0 15.51a26.11 26.11 0 1 0-26.11-26.1 26.11 26.11 0 0 0 26.11 26.1z"/><circle class="g" cx="1311.08" cy="909.8" r="16.51"/><path class="c" d="M1151.37 861a31.07 31.07 0 1 1 .07 0zm0-52.21a21.12 21.12 0 1 0 21.12 21.21 21.11 21.11 0 0 0-21.12-21.12z"/><path class="g" d="M1231.23 819.27a10.68 10.68 0 1 1-10.68 10.73 10.68 10.68 0 0 1 10.68-10.68zm0-15.43a26.11 26.11 0 1 0 26.1 26.11 26.11 26.11 0 0 0-26.1-26.11z"/><circle class="e" cx="1071.52" cy="829.95" r="16.51"/><circle class="c" cx="911.82" cy="829.95" r="16.51"/><circle class="e" cx="1311.08" cy="829.95" r="16.51"/><path class="e" d="M1390.93 958.55a31.07 31.07 0 1 1-.06 0zm0 52.21a21.12 21.12 0 1 0-21.12-21.11 21.11 21.11 0 0 0 21.12 21.11z"/><circle class="f" cx="1390.93" cy="909.8" r="16.51"/><circle class="c" cx="1390.93" cy="829.95" r="16.51"/><path class="g" d="M991.67 819.27A10.68 10.68 0 1 1 981 830a10.66 10.66 0 0 1 10.63-10.68zm0-15.43a26.11 26.11 0 1 0 26.11 26.16 26.11 26.11 0 0 0-26.11-26.16z"/><circle class="e" cx="831.97" cy="829.95" r="16.51"/></g></svg>